# This file uses centimeters as units for non-parametric coordinates.

mtllib Display_Room_Floor_Tile.mtl
g default
v 0.000000 -0.000000 2.000138
v 2.000000 -0.000000 2.000138
v 0.000000 -0.000000 0.000138
v 2.000000 -0.000000 0.000138
v 0.000000 0.100000 0.000138
v 2.000000 0.100000 0.000138
v 0.000000 0.040000 2.000138
v 2.000000 0.040000 2.000138
v 2.000000 0.040000 0.000138
v 0.000000 0.040000 0.000138
v 1.000000 0.100000 0.000138
v 1.000000 0.100000 2.000138
v 1.000000 0.100000 1.000138
v 0.000000 0.100000 1.000138
v 1.000000 -0.000000 0.000138
v 1.000000 0.040000 0.000138
v 0.000000 0.040000 1.000138
v 0.000000 -0.000000 1.000138
v 1.000000 0.040000 2.000138
v 1.000000 -0.000000 2.000138
v 2.000000 0.040000 1.000138
v 2.000000 -0.000000 1.000138
v 1.000000 -0.000000 1.000138
v 0.500000 0.100000 1.000138
v 0.500000 0.100000 0.000138
v 1.000000 0.100000 0.500138
v 2.000000 0.100000 0.500138
v 1.500000 0.100000 1.000138
v 1.500000 0.100000 2.000138
v 1.000000 0.100000 1.500138
v 0.000000 0.100000 1.500138
v 1.000000 0.100000 0.450138
v 2.000000 0.100000 0.450138
v 1.000000 0.100000 0.950138
v 2.000000 0.100000 0.950138
v 1.950000 0.100000 1.000138
v 1.950000 0.100000 2.000138
v 1.450000 0.100000 1.000138
v 1.450000 0.100000 2.000138
v 1.000000 0.100000 1.950138
v 0.000000 0.100000 1.950138
v 1.000000 0.100000 1.450138
v 0.000000 0.100000 1.450138
v 0.950000 0.100000 1.000138
v 0.950000 0.100000 0.000138
v 0.450000 0.100000 1.000138
v 0.450000 0.100000 0.000138
v 0.500000 0.040000 0.000138
v 0.950000 0.040000 0.000138
v 0.500000 -0.000000 0.000138
v 0.500000 -0.000000 1.000138
v 1.000000 -0.000000 1.500138
v 0.450000 0.040000 0.000138
v 2.000000 -0.000000 0.500138
v 2.000000 0.040000 0.500138
v 2.000000 0.040000 0.450138
v 2.000000 0.040000 0.950138
v 0.000000 0.040000 1.500138
v 0.000000 -0.000000 1.500138
v 0.000000 0.040000 1.450138
v 0.000000 0.040000 1.950138
v 1.500000 0.040000 2.000138
v 1.500000 -0.000000 2.000138
v 1.450000 0.040000 2.000138
v 1.950000 0.040000 2.000138
v 1.000000 -0.000000 0.500138
v 1.500000 -0.000000 1.000138
v 1.000000 0.040000 1.950138
v 1.000000 0.040000 1.450138
v 1.000000 0.040000 1.500138
v 0.500000 0.040000 1.000138
v 0.450000 0.040000 1.000138
v 1.000000 0.040000 1.000138
v 0.950000 0.040000 1.000138
v 1.000000 0.040000 0.950138
v 0.950000 0.040000 0.950138
v 1.449966 0.040000 1.000138
v 1.500000 0.040000 1.000138
v 1.474749 0.040000 0.950138
v 1.000000 0.040000 0.450138
v 1.000000 0.040000 0.500138
v 0.950000 0.040000 0.475138
v 1.950000 0.040000 1.000138
vt 0.861706 0.546727
vt 0.890846 0.549707
vt 0.879161 0.548814
vt 0.879161 0.900559
vt 0.570426 0.918481
vt 0.570426 0.930205
vt 0.861412 0.930205
vt 0.861412 0.900559
vt 0.570426 0.900559
vt 0.570426 0.699661
vt 0.861459 0.699661
vt 0.861706 0.564285
vt 0.570426 0.564285
vt 0.861459 0.764150
vt 0.570426 0.764150
vt 0.861459 0.722329
vt 0.890846 0.699273
vt 0.861459 0.743441
vt 0.570426 0.722329
vt 0.570426 0.743441
vt 0.587381 0.546727
vt 0.587381 0.532057
vt 0.570426 0.532057
vt 0.570426 0.546727
vt 0.732152 0.532057
vt 0.724414 0.546727
vt 0.717532 0.532057
vt 0.879161 0.718129
vt 0.879161 0.564285
vt 0.879161 0.699661
vt 0.861706 0.532057
vt 0.861412 0.918481
vt 0.890846 0.900559
vt 0.879161 0.764150
vt 0.890846 0.748913
vt 0.086127 0.100631
vt 0.419647 0.084868
vt 0.419764 0.072289
vt 0.073548 0.100513
vt 0.101709 0.453019
vt 0.101562 0.468743
vt 0.258947 0.454489
vt 0.274670 0.454636
vt 0.416184 0.455959
vt 0.417508 0.314445
vt 0.103032 0.311505
vt 0.082841 0.452842
vt 0.103209 0.292636
vt 0.070262 0.452725
vt 0.072083 0.257751
vt 0.103531 0.258044
vt 0.418006 0.260974
vt 0.419325 0.119460
vt 0.104849 0.116530
vt 0.103355 0.276913
vt 0.105025 0.097662
vt 0.082693 0.468566
vt 0.258770 0.473357
vt 0.274494 0.473505
vt 0.435053 0.456136
vt 0.436376 0.314633
vt 0.417830 0.279842
vt 0.419501 0.100592
vt 0.438193 0.119636
vt 0.436875 0.261150
vt 0.417684 0.295577
vt 0.085981 0.116354
vt 0.105172 0.081938
vt 0.084164 0.311328
vt 0.076167 0.438869
vt 0.076115 0.421729
vt 0.071732 0.295487
vt 0.076115 0.421729
vt 0.084662 0.257868
vt 0.117433 0.453166
vt 0.105289 0.069359
vt 0.901130 0.426931
vt 0.917404 0.088679
vt 0.930162 0.088571
vt 0.901238 0.439689
vt 0.543741 0.410819
vt 0.542526 0.267290
vt 0.542391 0.251343
vt 0.541175 0.107814
vt 0.541040 0.091866
vt 0.684569 0.090651
vt 0.687270 0.409603
vt 0.543903 0.429956
vt 0.706407 0.409441
vt 0.544011 0.442714
vt 0.741762 0.441040
vt 0.741491 0.409144
vt 0.738791 0.090192
vt 0.882319 0.088976
vt 0.885020 0.407929
vt 0.722354 0.409306
vt 0.904157 0.407767
vt 0.901456 0.088814
vt 0.703706 0.090489
vt 0.719653 0.090354
vt 0.523388 0.267452
vt 0.523253 0.251505
vt 0.885182 0.427066
vt 0.920105 0.407632
vt 0.687432 0.428741
vt 0.725706 0.428416
vt 0.703487 0.441364
vt 0.741654 0.428281
vt 0.932863 0.407524
vt 0.103008 0.551234
vt 0.071915 0.569659
vt 0.070222 0.879567
vt 0.101111 0.898331
vt 0.102906 0.569828
vt 0.101213 0.879736
vt 0.255998 0.911574
vt 0.274762 0.880684
vt 0.259266 0.880600
vt 0.240672 0.880498
vt 0.242365 0.570590
vt 0.432815 0.881548
vt 0.434508 0.571640
vt 0.295049 0.570878
vt 0.293356 0.880786
vt 0.448141 0.912623
vt 0.451409 0.881650
vt 0.448209 0.900227
vt 0.452298 0.718870
vt 0.467751 0.726780
vt 0.467836 0.711274
vt 0.468598 0.571826
vt 0.453102 0.571741
vt 0.466989 0.866239
vt 0.260959 0.570692
vt 0.276455 0.570776
vt 0.434609 0.553045
vt 0.295151 0.552283
vt 0.242466 0.551996
vt 0.432713 0.900142
vt 0.277759 0.899296
vt 0.240570 0.899093
vt 0.293187 0.911777
vt 0.293254 0.899381
vt 0.466905 0.881734
vt 0.084312 0.569727
vt 0.082618 0.879635
vt 0.101044 0.910727
vt 0.733394 0.517424
vt 0.484227 0.266612
vt 0.484266 0.484271
vt 0.483460 0.733394
vt 0.266606 0.484310
vt 0.949319 0.517385
vt 0.733472 0.949274
vt 0.949396 0.949235
vt 0.951009 0.266528
vt 0.517547 0.949313
vt 0.049841 0.733472
vt 0.049880 0.950281
vt 0.266528 0.048991
vt 0.048869 0.049030
vt 0.048947 0.484349
vt 0.950970 0.048869
vt 0.484188 0.048952
vt 0.266612 0.516623
vt 0.515729 0.484266
vt 0.517469 0.517463
vt 0.483421 0.516585
vt 0.517508 0.733388
vt 0.483499 0.950203
vt 0.515690 0.266606
vt 0.733388 0.484227
vt 0.951048 0.484188
vt 0.515651 0.048947
vt 0.049803 0.516662
vt 0.724740 0.546795
vt 0.732326 0.531790
vt 0.717288 0.531723
vn 0.000000 0.000000 1.000000
vn 0.000000 0.000000 1.000000
vn 0.000000 0.000000 1.000000
vn 0.000000 0.000000 1.000000
vn 0.000000 -1.000000 0.000000
vn 0.000000 -1.000000 0.000000
vn 0.000000 -1.000000 0.000000
vn 0.000000 0.000000 -1.000000
vn 0.000000 0.000000 -1.000000
vn 0.000000 0.000000 -1.000000
vn 1.000000 0.000000 0.000000
vn 1.000000 0.000000 0.000000
vn 1.000000 0.000000 0.000000
vn 1.000000 0.000000 0.000000
vn -1.000000 0.000000 0.000000
vn -1.000000 0.000000 0.000000
vn -1.000000 0.000000 0.000000
vn -1.000000 0.000000 0.000000
vn -1.000000 0.000000 0.000000
vn -1.000000 0.000000 0.000000
vn 0.000000 1.000000 0.000000
vn 0.000000 1.000000 0.000000
vn 0.000000 1.000000 0.000000
vn 0.000000 1.000000 -0.000000
vn 0.000000 1.000000 -0.000000
vn 0.000000 1.000000 0.000000
vn 0.000000 1.000000 0.000000
vn 0.000000 1.000000 -0.000000
vn 0.000000 1.000000 -0.000000
vn 0.000000 1.000000 -0.000000
vn 0.000000 1.000000 -0.000000
vn 0.000000 1.000000 -0.000000
vn 0.000000 0.000000 -1.000000
vn 0.000000 0.000000 -1.000000
vn 0.000000 0.000000 -1.000000
vn 0.000000 0.000000 -1.000000
vn -1.000000 0.000000 0.000000
vn -1.000000 0.000000 0.000000
vn -1.000000 0.000000 0.000000
vn 0.000000 0.000000 1.000000
vn 0.000000 0.000000 1.000000
vn 0.000000 0.000000 1.000000
vn 0.000000 0.000000 1.000000
vn 1.000000 0.000000 0.000000
vn 1.000000 0.000000 0.000000
vn 1.000000 0.000000 0.000000
vn 0.000000 -1.000000 0.000000
vn 0.000000 -1.000000 0.000000
vn -0.000000 1.000000 0.000000
vn -0.000000 1.000000 0.000000
vn -0.000000 1.000000 0.000000
vn -0.000000 1.000000 0.000000
vn 0.000000 1.000000 0.000000
vn 0.000000 1.000000 0.000000
vn 0.000000 1.000000 0.000000
vn 0.000000 1.000000 0.000000
vn 0.000000 1.000000 0.000000
vn 0.000000 1.000000 0.000000
vn 0.000000 1.000000 0.000000
vn 0.000000 1.000000 0.000000
vn 0.000000 1.000000 0.000000
vn 0.000000 1.000000 0.000000
vn 0.000000 1.000000 0.000000
vn 0.000000 1.000000 0.000000
vn 0.000000 1.000000 0.000000
vn 0.000000 1.000000 0.000000
vn 0.000000 0.000000 -1.000000
vn 0.000000 0.000000 -1.000000
vn 0.000000 0.000000 -1.000000
vn 0.000000 0.000000 -1.000000
vn 0.000000 0.000000 -1.000000
vn 0.000000 -1.000000 0.000000
vn 0.000000 -1.000000 0.000000
vn 0.000000 -1.000000 0.000000
vn 0.000000 -1.000000 0.000000
vn 0.000000 0.000000 -1.000000
vn 0.000000 0.000000 -1.000000
vn 0.000000 0.000000 -1.000000
vn 0.000000 0.000000 -1.000000
vn 1.000000 0.000000 0.000000
vn 1.000000 0.000000 0.000000
vn 1.000000 0.000000 0.000000
vn 1.000000 0.000000 0.000000
vn 1.000000 0.000000 0.000000
vn 1.000000 0.000000 0.000000
vn 1.000000 0.000000 0.000000
vn -1.000000 0.000000 0.000000
vn -1.000000 0.000000 0.000000
vn -1.000000 0.000000 0.000000
vn -1.000000 0.000000 0.000000
vn -1.000000 0.000000 0.000000
vn -1.000000 0.000000 0.000000
vn 0.000000 0.000000 1.000000
vn 0.000000 0.000000 1.000000
vn 0.000000 0.000000 1.000000
vn 0.000000 0.000000 1.000000
vn 0.000000 0.000000 1.000000
vn 0.000000 0.000000 1.000000
vn 0.000000 -1.000000 0.000000
vn 0.000000 -1.000000 0.000000
vn 0.000000 -1.000000 0.000000
vn 0.000000 -1.000000 0.000000
vn 0.000000 -1.000000 0.000000
vn 0.000000 -1.000000 0.000000
vn 0.000000 -1.000000 0.000000
vn 0.000000 -1.000000 0.000000
vn 0.000000 1.000000 0.000000
vn 0.000000 1.000000 0.000000
vn 0.000000 1.000000 0.000000
vn 0.000000 1.000000 0.000000
vn -1.000000 0.000000 0.000000
vn -1.000000 0.000000 0.000000
vn -1.000000 0.000000 0.000000
vn -1.000000 0.000000 0.000000
vn 0.000000 0.000000 1.000000
vn 0.000000 0.000000 1.000000
vn 0.000000 0.000000 1.000000
vn 0.000000 0.000000 1.000000
vn 0.000000 1.000000 0.000000
vn 0.000000 1.000000 0.000000
vn 0.000000 1.000000 0.000000
vn 0.000000 1.000000 0.000000
vn -1.000000 0.000000 0.000000
vn -1.000000 0.000000 0.000000
vn -1.000000 0.000000 0.000000
vn -1.000000 0.000000 0.000000
vn 0.000000 0.000000 -1.000000
vn 0.000000 0.000000 -1.000000
vn 0.000000 0.000000 -1.000000
vn 0.000000 0.000000 -1.000000
vn 0.000000 0.000000 1.000000
vn 0.000000 0.000000 1.000000
vn 0.000000 0.000000 1.000000
vn 0.000000 0.000000 1.000000
vn 0.000000 1.000000 0.000000
vn 0.000000 1.000000 0.000000
vn 0.000000 1.000000 0.000000
vn 0.000000 1.000000 0.000000
vn 0.000000 0.000000 -1.000000
vn 0.000000 0.000000 -1.000000
vn 0.000000 0.000000 -1.000000
vn 0.000000 0.000000 -1.000000
vn 1.000000 0.000000 0.000000
vn 1.000000 0.000000 0.000000
vn 1.000000 0.000000 0.000000
vn 1.000000 0.000000 0.000000
vn -1.000000 0.000000 0.000000
vn -1.000000 0.000000 0.000000
vn -1.000000 0.000000 0.000000
vn -1.000000 0.000000 0.000000
vn 0.000000 1.000000 0.000000
vn 0.000000 1.000000 0.000000
vn 0.000000 1.000000 0.000000
vn 0.000000 1.000000 0.000000
vn 0.000000 1.000000 0.000000
vn 0.000000 1.000000 -0.000000
vn 0.000000 1.000000 0.000000
vn 0.000000 1.000000 0.000000
vn 0.000000 1.000000 0.000000
vn 0.000000 1.000000 0.000000
vn 0.000000 1.000000 0.000000
vn 1.000000 0.000001 0.000000
vn 1.000000 0.000001 0.000000
vn 1.000000 0.000001 0.000000
vn 1.000000 0.000001 0.000000
vn 1.000000 0.000001 0.000000
vn 0.000000 0.000000 -1.000000
vn 0.000000 0.000000 -1.000000
vn 0.000000 0.000000 -1.000000
vn 0.000000 0.000000 -1.000000
vn 0.000000 0.000000 -1.000000
vn 0.000000 0.000000 -1.000000
vn 0.000000 0.000000 -1.000000
vn 0.000000 0.000000 -1.000000
vn 1.000000 -0.000284 -0.000017
vn 1.000000 -0.000284 -0.000017
vn 1.000000 -0.000284 -0.000017
vn 1.000000 -0.000284 -0.000017
vn 0.000000 1.000000 0.000000
vn 0.000000 1.000000 0.000000
vn 0.000000 1.000000 0.000000
vn 0.000000 1.000000 0.000000
vn 0.000000 1.000000 -0.000000
vn 0.000000 1.000000 -0.000000
vn 0.000000 1.000000 0.000000
vn -0.000000 1.000000 0.000000
vn 1.000000 0.000000 0.000000
vn -1.000000 0.000000 0.000000
vn -1.000000 0.000000 0.000000
vn -1.000000 0.000000 0.000000
vn -1.000000 0.000000 0.000000
vn -1.000000 0.000000 0.000000
vn -1.000000 0.000000 0.000000
vn -1.000000 0.000000 0.000000
vn -1.000000 0.000000 0.000000
vn 0.000000 1.000000 0.000000
vn 0.000000 1.000000 -0.000000
vn 0.000000 1.000000 -0.000000
vn 0.000000 1.000000 -0.000000
vn 0.000000 1.000000 -0.000000
vn 0.000000 0.000000 1.000000
vn 0.000000 0.000000 1.000000
vn 0.000000 0.000000 1.000000
vn 0.000000 0.000000 1.000000
vn 0.000000 0.000000 -1.000000
vn 0.000000 0.000000 -1.000000
vn 0.000000 0.000000 -1.000000
vn 0.000000 0.000000 -1.000000
vn -1.000000 0.000000 0.000000
vn -1.000000 0.000000 0.000000
vn -1.000000 0.000000 0.000000
vn -1.000000 0.000000 0.000000
vn 0.000000 0.000000 -1.000000
vn 0.000000 0.000000 -1.000000
vn 0.000000 0.000000 -1.000000
vn 0.000000 0.000000 -1.000000
vn -0.000000 1.000000 0.000000
vn 0.000000 0.000000 1.000000
vn 0.000000 0.000000 1.000000
vn 0.000000 0.000000 1.000000
vn 0.000000 0.000000 1.000000
vn 0.000000 0.000000 1.000000
vn -0.000000 1.000000 0.000000
vn -0.000000 1.000000 0.000000
vn 1.000000 0.000000 0.000000
vn 1.000000 0.000000 0.000000
vn 1.000000 0.000000 0.000000
vn 1.000000 0.000000 0.000000
s 1
g pCube1
usemtl initialShadingGroup
f 7/104/1 1/109/2 20/79/3 19/78/4
s 2
f 51/172/5 23/166/6 52/171/7
s 3
f 49/29/8 16/3/9 15/2/10
s 4
f 8/68/11 2/76/12 22/38/13 21/37/14
s 5
f 10/32/15 3/7/16 18/6/17 17/5/18
f 5/8/19 10/32/15 17/5/18 14/9/20
s 6
f 12/40/21 39/46/22 38/45/23 13/44/24 42/43/25 30/42/26 40/75/27
f 14/81/28 43/87/29 42/86/25 13/85/24 44/84/30 24/83/31 46/82/32
s 3
f 16/145/9 9/146/33 4/112/34 15/111/10
f 11/114/35 6/115/36 9/146/33 16/145/9
s 5
f 17/88/18 60/105/37 43/87/38 14/81/20
f 18/90/17 59/107/39 60/105/37 17/88/18
s 1
f 19/47/4 64/69/40 39/46/41 12/40/42
f 20/49/3 63/72/43 64/69/40 19/47/4
s 4
f 54/142/44 56/140/45 55/143/46
s 2
f 66/169/47 23/167/6 51/148/5
f 23/150/6 67/152/48 52/149/7
f 67/165/48 23/168/6 66/151/47
s off
f 29/51/49 37/54/50 36/53/51 28/52/52
s 6
f 31/92/53 41/95/54 40/94/27 30/93/26
s off
f 33/119/55 6/115/56 11/114/57 32/120/58
f 35/121/59 27/124/60 26/123/61 34/122/62
s 6
f 24/10/31 44/13/30 45/12/63 25/11/64
f 5/8/65 14/9/28 46/15/32 47/14/66
s 3
f 25/11/67 45/12/68 49/29/8 48/30/69
f 48/30/69 49/29/8 15/2/10 50/17/70
f 53/28/71 48/30/69 50/17/70
s 2
f 18/153/72 3/155/73 50/154/74 51/148/5
f 59/156/75 18/173/72 51/172/5 52/171/7
s 3
f 10/4/76 5/8/77 47/14/78 53/34/71
f 3/33/79 10/4/76 53/34/71 50/35/70
s 4
f 22/125/13 54/142/44 55/143/46 57/139/80
f 57/139/80 55/143/46 27/124/81 35/121/82
f 56/141/45 9/113/83 6/115/84 33/119/85
f 54/116/44 4/147/86 9/113/83 56/141/45
f 22/125/13 57/139/80 21/127/14
s 5
f 58/108/87 61/103/88 41/95/89 31/92/90
f 59/91/39 1/80/91 61/103/88 58/108/87
f 59/91/39 58/108/87 60/106/37
f 1/80/91 7/77/92 61/103/88
s 1
f 62/74/93 65/67/94 37/54/95 29/51/96
f 63/50/43 2/39/97 65/67/94 62/74/93
f 63/71/43 62/73/93 64/70/40
f 2/39/97 8/36/98 65/67/94
s 2
f 15/170/99 4/159/100 54/158/101 66/151/47
f 50/154/74 15/157/99 66/169/47 51/148/5
f 67/152/48 22/162/102 2/161/103 63/160/104
f 54/158/101 22/175/102 67/165/48 66/151/47
f 1/163/105 59/156/75 52/171/7 20/174/106
f 67/152/48 63/160/104 20/164/106 52/149/7
s off
f 7/104/107 19/78/108 68/98/109 61/97/110
f 19/47/111 12/40/112 40/41/113 68/57/114
f 61/97/115 68/98/116 40/94/117 41/95/118
f 58/96/119 70/100/120 69/99/121 60/89/122
f 42/43/123 69/59/124 70/58/125 30/42/126
f 70/100/127 58/96/128 31/92/129 30/93/130
f 42/86/131 43/87/132 60/89/133 69/99/134
f 53/18/135 72/20/136 71/19/137 48/16/138
f 72/101/139 46/82/140 24/83/141 71/102/142
f 72/20/143 53/18/144 47/14/145 46/15/146
f 48/16/147 71/19/148 24/10/149 25/11/150
s 10
f 76/21/151 74/24/152 73/23/153 75/22/154
s 11
f 79/128/155 77/130/156 78/129/157
s 10
f 49/1/158 82/26/159 80/25/160 16/31/161
s 13
f 44/13/162 76/21/163 82/26/164 49/1/165 45/12/166
s off
f 13//167 73//168 74//169 44//170
f 38/45/171 77/61/172 73/60/173 13/44/174
f 39/46/175 64/48/176 77/66/177 38/45/178
f 62/55/179 78/62/180 77/66/181 64/48/182
s 11
f 79/128/155 75/132/183 73/131/184 77/130/156
f 57/126/185 79/128/155 78/129/157 83/133/186
s 13
f 44/13/162 74/24/187 76/21/163
s off
f 11/114/188 16/110/189 80/138/190 32/120/191
f 26/123/192 81/137/193 75/136/194 34/122/195
s 10
f 82/26/159 76/21/151 75/22/154 81/27/196
f 82/176/159 81/178/196 80/177/160
s off
f 56/118/197 80/134/198 81/135/199 55/117/200
f 80/134/201 56/118/202 33/119/203 32/120/204
f 26/123/205 27/124/206 55/117/207 81/135/208
f 29/51/209 28/52/210 78/62/211 62/55/212
f 28/52/213 36/53/214 83/64/215 78/65/216
s 11
f 57/126/185 83/133/186 21/144/217
s off
f 35/121/218 34/122/219 75/132/220 79/128/221 57/126/222
s 11
f 83/63/186 65/56/223 8/68/224 21/37/217
s off
f 65/56/225 83/63/226 36/53/227 37/54/228
