# This file uses centimeters as units for non-parametric coordinates.

mtllib Display_Room_Ceiling_Tile.mtl
g default
v 0.000000 3.989609 2.002601
v 2.000000 3.989609 2.002601
v 0.000000 4.099623 1.997384
v 2.000000 4.099623 1.997384
v 0.000000 4.104840 -0.002601
v 2.000000 4.104840 -0.002601
v 0.000000 3.994826 0.002616
v 2.000000 3.994826 0.002616
v 0.100000 3.994550 0.102615
v 1.900000 3.994550 0.102615
v 1.900000 3.989885 1.902602
v 0.100000 3.989885 1.902602
v 0.000000 3.944826 0.002478
v 2.000000 3.944826 0.002478
v 1.900000 3.944550 0.102477
v 0.100000 3.944550 0.102477
v 2.000000 3.939609 2.002463
v 1.900000 3.939886 1.902464
v 0.000000 3.939609 2.002463
v 0.100000 3.939886 1.902464
vt 0.436620 0.440988
vt 0.059794 0.440988
vt 0.059794 0.064134
vt 0.436620 0.064134
vt 0.478830 0.483200
vt 0.017585 0.483200
vt 0.039755 0.461029
vt 0.456659 0.461029
vt 0.017585 0.021921
vt 0.039755 0.044093
vt 0.478830 0.021921
vt 0.456659 0.044093
vt 0.489834 0.515019
vt 0.948421 0.492150
vt 0.948421 0.515019
vt 0.513711 0.515019
vt 0.948421 0.949727
vt 0.513711 0.949727
vt 0.972362 0.949727
vt 0.513711 0.974736
vt 0.983230 0.949727
vt 0.513711 0.985604
vt 0.948421 0.481283
vt 0.478967 0.515019
vt 0.513711 0.492150
vt 0.513711 0.481283
vt 0.972362 0.515019
vt 0.983230 0.515019
vt 0.948421 0.974736
vt 0.948421 0.985604
vt 0.489834 0.949727
vt 0.478967 0.949727
vn 0.000000 0.047367 0.998878
vn 0.000000 0.047367 0.998878
vn 0.000000 0.047367 0.998878
vn 0.000000 0.047367 0.998878
vn 0.000000 0.999997 0.002608
vn 0.000000 0.999997 0.002608
vn 0.000000 0.999997 0.002608
vn 0.000000 0.999997 0.002608
vn 0.000000 -0.047367 -0.998878
vn 0.000000 -0.047367 -0.998878
vn 0.000000 -0.047367 -0.998878
vn 0.000000 -0.047367 -0.998878
vn 0.000000 -0.999997 -0.002591
vn 0.000000 -0.999997 -0.002591
vn 0.000000 -0.999997 -0.002591
vn 0.000000 -0.999997 -0.002591
vn 1.000000 0.000000 0.000000
vn 1.000000 0.000000 0.000000
vn 1.000000 0.000000 0.000000
vn 1.000000 0.000000 0.000000
vn -1.000000 0.000000 0.000000
vn -1.000000 0.000000 0.000000
vn -1.000000 0.000000 0.000000
vn -1.000000 0.000000 0.000000
vn 0.000000 -0.999996 -0.002761
vn 0.000000 -0.999996 -0.002761
vn 0.000000 -0.999996 -0.002761
vn 0.000000 -0.999996 -0.002761
vn -0.000000 -0.999997 -0.002600
vn -0.000000 -0.999997 -0.002600
vn -0.000000 -0.999997 -0.002600
vn -0.000000 -0.999997 -0.002600
vn 0.000000 -0.999996 -0.002761
vn 0.000000 -0.999996 -0.002761
vn 0.000000 -0.999996 -0.002761
vn 0.000000 -0.999996 -0.002761
vn 0.000000 -0.999997 -0.002600
vn 0.000000 -0.999997 -0.002600
vn 0.000000 -0.999997 -0.002600
vn 0.000000 -0.999997 -0.002600
vn 0.000000 0.002760 -0.999996
vn 0.000000 0.002760 -0.999996
vn 0.000000 0.002760 -0.999996
vn 0.000000 0.002760 -0.999996
vn 0.000000 -0.002760 0.999996
vn 0.000000 -0.002760 0.999996
vn 0.000000 -0.002760 0.999996
vn 0.000000 -0.002760 0.999996
vn 1.000000 0.000001 0.000000
vn 1.000000 0.000001 0.000000
vn 1.000000 0.000001 0.000000
vn 1.000000 0.000001 0.000000
vn -1.000000 0.000001 0.000000
vn -1.000000 0.000001 0.000000
vn -1.000000 0.000001 0.000000
vn -1.000000 0.000001 0.000000
vn 0.000000 -0.002761 0.999996
vn 0.000000 -0.002761 0.999996
vn 0.000000 -0.002761 0.999996
vn 0.000000 -0.002761 0.999996
vn 0.000000 0.002761 -0.999996
vn 0.000000 0.002761 -0.999996
vn 0.000000 0.002761 -0.999996
vn 0.000000 0.002761 -0.999996
vn -1.000000 0.000000 0.000000
vn -1.000000 0.000000 0.000000
vn -1.000000 0.000000 0.000000
vn -1.000000 0.000000 0.000000
vn 1.000000 0.000001 0.000000
vn 1.000000 0.000001 0.000000
vn 1.000000 0.000001 0.000000
vn 1.000000 0.000001 0.000000
s off
g pCube5
usemtl lambert5SG
f 1/25/1 2/14/2 4/15/3 3/16/4
f 3/16/5 4/15/6 6/17/7 5/18/8
f 5/18/9 6/17/10 8/29/11 7/20/12
f 9/1/13 10/2/14 11/3/15 12/4/16
f 2/27/17 8/19/18 6/17/19 4/15/20
f 7/31/21 1/13/22 3/16/23 5/18/24
f 13/5/25 14/6/26 15/7/27 16/8/28
f 14/6/29 17/9/30 18/10/31 15/7/32
f 17/9/33 19/11/34 20/12/35 18/10/36
f 19/11/37 13/5/38 16/8/39 20/12/40
f 7/20/41 8/29/42 14/30/43 13/22/44
f 10/2/45 9/1/46 16/8/47 15/7/48
f 8/19/49 2/27/50 17/28/51 14/21/52
f 11/3/53 10/2/54 15/7/55 18/10/56
f 2/14/57 1/25/58 19/26/59 17/23/60
f 12/4/61 11/3/62 18/10/63 20/12/64
f 1/13/65 7/31/66 13/32/67 19/24/68
f 9/1/69 12/4/70 20/12/71 16/8/72
