# This file uses centimeters as units for non-parametric coordinates.

mtllib wall lamp.mtl
g default
v 2.850000 1.700000 0.150000
v 3.150000 1.700000 0.150000
v 2.850000 2.300000 0.150000
v 3.150000 2.300000 0.150000
v 2.850000 2.300000 -0.050000
v 3.150000 2.300000 -0.050000
v 2.850000 1.700000 -0.050000
v 3.150000 1.700000 -0.050000
v 2.924400 1.808000 0.150000
v 3.075600 1.808000 0.150000
v 3.075600 2.192000 0.150000
v 2.924400 2.192000 0.150000
v 2.924400 1.808000 0.200000
v 3.075600 1.808000 0.200000
v 3.075600 2.192000 0.200000
v 2.924399 2.192000 0.200000
v 2.954640 1.948160 0.200000
v 3.045360 1.948160 0.200000
v 3.045360 2.051840 0.200000
v 2.954640 2.051840 0.200000
v 2.954640 1.948160 0.400000
v 3.045360 1.948160 0.400000
v 3.045360 2.051840 0.350000
v 2.954640 2.051840 0.350000
v 2.954640 2.048160 0.500000
v 3.045360 2.048160 0.500000
v 3.045360 2.101840 0.400000
v 2.954640 2.101840 0.400000
v 2.954640 2.151840 0.500000
v 3.045360 2.151840 0.500000
v 3.045360 2.151840 0.400000
v 2.954640 2.151840 0.400000
v 2.927423 2.201840 0.527000
v 3.072576 2.201840 0.527000
v 3.072576 2.201840 0.373000
v 2.927423 2.201840 0.373000
v 2.927423 2.251840 0.527000
v 3.072576 2.251840 0.527000
v 3.072576 2.251840 0.373000
v 2.927423 2.251840 0.373000
v 2.895489 2.301840 0.557800
v 3.104509 2.301840 0.557800
v 3.104509 2.301840 0.342200
v 2.895489 2.301840 0.342200
v 2.895489 2.351840 0.557800
v 3.104509 2.351840 0.557800
v 3.104509 2.351840 0.342200
v 2.895489 2.351840 0.342200
v 2.916391 2.351840 0.536240
v 3.083607 2.351840 0.536240
v 3.083607 2.351840 0.363760
v 2.916391 2.351840 0.363760
v 2.916391 2.651840 0.536240
v 3.083607 2.651840 0.536240
v 3.083607 2.651840 0.363760
v 2.916391 2.651840 0.363760
v 2.899670 2.651840 0.553488
v 3.100329 2.651840 0.553488
v 3.100329 2.651840 0.346512
v 2.899670 2.651840 0.346512
v 2.899670 2.701840 0.553488
v 3.100329 2.701840 0.553488
v 3.100329 2.701840 0.346512
v 2.899670 2.701840 0.346512
v 2.929768 2.751839 0.522442
v 3.070230 2.751839 0.522442
v 3.070230 2.751839 0.377558
v 2.929768 2.751839 0.377558
vt 0.350129 0.384279
vt 0.480115 0.384279
vt 0.566772 0.384279
vt 0.350129 0.470936
vt 0.350129 0.037650
vt 0.566772 0.124307
vt 0.480115 0.124307
vt 0.350129 0.124307
vt 0.216065 0.144123
vt 0.077452 0.114164
vt 0.167984 0.404168
vt 0.029372 0.374209
vt 0.167984 0.144123
vt 0.077452 0.144123
vt 0.167984 0.374209
vt 0.077452 0.374209
vt 0.149296 0.228105
vt 0.096140 0.228105
vt 0.149296 0.290228
vt 0.096140 0.290228
vt 0.382366 0.337484
vt 0.077452 0.404168
vt 0.447879 0.337484
vt 0.216065 0.374209
vt 0.447879 0.171102
vt 0.167984 0.114164
vt 0.382366 0.171102
vt 0.029372 0.144123
vt 0.480115 0.037650
vt 0.263472 0.124307
vt 0.480115 0.470936
vt 0.263472 0.384279
vt 0.990790 0.306305
vt 0.990790 0.385067
vt 0.881556 0.385067
vt 0.845145 0.306305
vt 0.990790 0.385067
vt 0.990790 0.306305
vt 0.845145 0.306305
vt 0.881556 0.385067
vt 0.845145 0.423050
vt 0.772323 0.382271
vt 0.772323 0.382271
vt 0.845145 0.423050
vt 0.845145 0.461033
vt 0.772323 0.461033
vt 0.772323 0.461033
vt 0.845145 0.461033
vt 0.864807 0.499016
vt 0.752661 0.499016
vt 0.752661 0.499016
vt 0.864807 0.499016
vt 0.864807 0.536999
vt 0.752661 0.536999
vt 0.752661 0.536999
vt 0.864807 0.536999
vt 0.887236 0.574982
vt 0.730231 0.574982
vt 0.730231 0.574982
vt 0.887236 0.574982
vt 0.887236 0.612965
vt 0.730231 0.612965
vt 0.730231 0.612965
vt 0.887236 0.612965
vt 0.602842 0.059307
vt 0.670165 0.059309
vt 0.670160 0.207727
vt 0.602837 0.207725
vt 0.670156 0.312675
vt 0.602833 0.312672
vt 0.670153 0.389615
vt 0.602830 0.389612
vt 0.690348 0.431784
vt 0.582632 0.431780
vt 0.690347 0.468889
vt 0.582631 0.468885
vt 0.714043 0.512469
vt 0.558931 0.512463
vt 0.714041 0.549573
vt 0.558929 0.549568
vt 0.602574 0.185685
vt 0.670466 0.185692
vt 0.670454 0.297946
vt 0.602563 0.297940
vt 0.670449 0.350863
vt 0.602558 0.350857
vt 0.670446 0.388281
vt 0.602554 0.388275
vt 0.690809 0.430809
vt 0.582182 0.430798
vt 0.690805 0.468226
vt 0.582179 0.468216
vt 0.714699 0.512177
vt 0.558277 0.512161
vt 0.714696 0.549595
vt 0.558273 0.549579
vt 0.566448 0.757373
vt 0.654002 0.757373
vt 0.654002 0.847995
vt 0.566448 0.847995
vt 0.547822 0.709805
vt 0.701523 0.738668
vt 0.672597 0.738668
vt 0.547822 0.738668
vt 0.672597 0.895569
vt 0.672597 0.866727
vt 0.518921 0.866727
vt 0.547822 0.866727
vt 0.547822 0.895569
vt 0.701523 0.866727
vt 0.672597 0.709805
vt 0.518921 0.738668
vt 0.749480 0.729152
vt 0.875941 0.729152
vt 0.863294 0.741798
vt 0.762126 0.741798
vt 0.875941 0.855613
vt 0.863294 0.842967
vt 0.749480 0.855613
vt 0.762126 0.842967
vt 0.761274 0.740946
vt 0.864147 0.740946
vt 0.874434 0.730659
vt 0.750986 0.730659
vt 0.864147 0.843819
vt 0.874434 0.854106
vt 0.761274 0.843819
vt 0.750986 0.854106
vt 0.139511 0.551789
vt 0.241254 0.551789
vt 0.241254 0.734325
vt 0.139511 0.734325
vt 0.346200 0.551789
vt 0.346200 0.734325
vt 0.034564 0.551789
vt 0.034564 0.734325
vt 0.447944 0.551789
vt 0.447944 0.734325
vt 0.350273 0.384227
vt 0.479911 0.384227
vt 0.479911 0.123993
vt 0.350273 0.123993
vn 0.000000 1.000000 0.000000
vn 0.000000 1.000000 0.000000
vn 0.000000 1.000000 0.000000
vn 0.000000 1.000000 0.000000
vn 0.000000 1.000000 0.000000
vn 0.000000 1.000000 0.000000
vn 0.000000 1.000000 0.000000
vn 0.000000 1.000000 0.000000
vn 0.000000 0.000000 -1.000000
vn 0.000000 0.000000 -1.000000
vn 0.000000 0.000000 -1.000000
vn 0.000000 0.000000 -1.000000
vn 0.000000 -1.000000 0.000000
vn 0.000000 -1.000000 0.000000
vn 0.000000 -1.000000 0.000000
vn 0.000000 -1.000000 0.000000
vn 1.000000 0.000000 0.000000
vn 1.000000 0.000000 0.000000
vn 1.000000 0.000000 0.000000
vn 1.000000 0.000000 0.000000
vn -1.000000 0.000000 0.000000
vn -1.000000 0.000000 0.000000
vn -1.000000 0.000000 0.000000
vn -1.000000 0.000000 0.000000
vn 0.000000 0.000000 1.000000
vn 0.000000 0.000000 1.000000
vn 0.000000 0.000000 1.000000
vn 0.000000 0.000000 1.000000
vn 0.000000 0.000000 1.000000
vn 0.000000 0.000000 1.000000
vn 0.000000 0.000000 1.000000
vn 0.000000 0.000000 1.000000
vn 0.000000 0.000000 1.000000
vn 0.000000 0.000000 1.000000
vn 0.000000 0.000000 1.000000
vn 0.000000 0.000000 1.000000
vn 0.000000 0.000000 1.000000
vn 0.000000 0.000000 1.000000
vn 0.000000 0.000000 1.000000
vn 0.000000 0.000000 1.000000
vn 0.000000 -1.000000 0.000000
vn 0.000000 -1.000000 0.000000
vn 0.000000 -1.000000 0.000000
vn 0.000000 -1.000000 0.000000
vn 1.000000 0.000000 0.000000
vn 1.000000 0.000000 0.000000
vn 1.000000 0.000000 0.000000
vn 1.000000 0.000000 0.000000
vn 0.000000 1.000000 0.000000
vn 0.000000 1.000000 0.000000
vn 0.000000 1.000000 0.000000
vn 0.000000 1.000000 0.000000
vn -1.000000 -0.000001 -0.000006
vn -1.000000 -0.000001 -0.000006
vn -1.000000 -0.000001 -0.000006
vn -1.000000 -0.000001 -0.000006
vn 0.000000 0.000000 1.000000
vn 0.000000 0.000000 1.000000
vn 0.000000 0.000000 1.000000
vn 0.000000 0.000000 1.000000
vn -0.000000 0.000000 1.000000
vn -0.000000 0.000000 1.000000
vn -0.000000 0.000000 1.000000
vn -0.000000 0.000000 1.000000
vn 0.000000 0.000000 1.000000
vn 0.000000 0.000000 1.000000
vn 0.000000 0.000000 1.000000
vn 0.000000 0.000000 1.000000
vn 0.000000 0.000000 1.000000
vn 0.000000 0.000000 1.000000
vn 0.000000 0.000000 1.000000
vn 0.000000 0.000000 1.000000
vn 0.000000 -1.000000 0.000000
vn 0.000000 -1.000000 0.000000
vn 0.000000 -1.000000 0.000000
vn 0.000000 -1.000000 0.000000
vn 1.000000 0.000000 0.000000
vn 1.000000 0.000000 0.000000
vn 1.000000 0.000000 0.000000
vn 1.000000 0.000000 0.000000
vn 0.000000 1.000000 0.000000
vn 0.000000 1.000000 0.000000
vn 0.000000 1.000000 0.000000
vn 0.000000 1.000000 0.000000
vn -1.000000 0.000000 0.000000
vn -1.000000 0.000000 0.000000
vn -1.000000 0.000000 0.000000
vn -1.000000 0.000000 0.000000
vn 0.000000 -0.707107 0.707107
vn 0.000000 -0.707107 0.707107
vn 0.000000 -0.707107 0.707107
vn 0.000000 -0.707107 0.707107
vn 1.000000 -0.000000 0.000000
vn 1.000000 -0.000000 0.000000
vn 1.000000 -0.000000 0.000000
vn 1.000000 -0.000000 0.000000
vn 0.000000 0.707107 -0.707106
vn 0.000000 0.707107 -0.707106
vn 0.000000 0.707107 -0.707106
vn 0.000000 0.707107 -0.707106
vn -1.000000 0.000000 0.000000
vn -1.000000 0.000000 0.000000
vn -1.000000 0.000000 0.000000
vn -1.000000 0.000000 0.000000
vn 0.000000 0.000000 1.000000
vn 0.000000 0.000000 1.000000
vn 0.000000 0.000000 1.000000
vn 0.000000 0.000000 1.000000
vn 1.000000 0.000000 0.000000
vn 1.000000 0.000000 0.000000
vn 1.000000 0.000000 0.000000
vn 1.000000 0.000000 0.000000
vn 0.000000 0.000000 -1.000000
vn 0.000000 0.000000 -1.000000
vn 0.000000 0.000000 -1.000000
vn 0.000000 0.000000 -1.000000
vn -1.000000 0.000000 0.000000
vn -1.000000 0.000000 0.000000
vn -1.000000 0.000000 0.000000
vn -1.000000 0.000000 0.000000
vn 0.000000 -0.475149 0.879905
vn 0.000000 -0.475149 0.879905
vn 0.000000 -0.475149 0.879905
vn 0.000000 -0.475149 0.879905
vn 0.878314 -0.478085 0.000000
vn 0.878314 -0.478085 0.000000
vn 0.878314 -0.478085 0.000000
vn 0.878314 -0.478085 0.000000
vn 0.000000 -0.475149 -0.879905
vn 0.000000 -0.475149 -0.879905
vn 0.000000 -0.475149 -0.879905
vn 0.000000 -0.475149 -0.879905
vn -0.878311 -0.478089 0.000000
vn -0.878311 -0.478089 0.000000
vn -0.878311 -0.478089 0.000000
vn -0.878311 -0.478089 0.000000
vn 0.000000 0.000000 1.000000
vn 0.000000 0.000000 1.000000
vn 0.000000 0.000000 1.000000
vn 0.000000 0.000000 1.000000
vn 1.000000 0.000000 0.000000
vn 1.000000 0.000000 0.000000
vn 1.000000 0.000000 0.000000
vn 1.000000 0.000000 0.000000
vn 0.000000 0.000000 -1.000000
vn 0.000000 0.000000 -1.000000
vn 0.000000 0.000000 -1.000000
vn 0.000000 0.000000 -1.000000
vn -1.000000 0.000000 0.000000
vn -1.000000 0.000000 0.000000
vn -1.000000 0.000000 0.000000
vn -1.000000 0.000000 0.000000
vn 0.000000 -0.524478 0.851424
vn 0.000000 -0.524478 0.851424
vn 0.000000 -0.524478 0.851424
vn 0.000000 -0.524478 0.851424
vn 0.842781 -0.538256 0.000000
vn 0.842781 -0.538256 0.000000
vn 0.842781 -0.538256 0.000000
vn 0.842781 -0.538256 0.000000
vn 0.000000 -0.524478 -0.851424
vn 0.000000 -0.524478 -0.851424
vn 0.000000 -0.524478 -0.851424
vn 0.000000 -0.524478 -0.851424
vn -0.842775 -0.538267 0.000000
vn -0.842775 -0.538267 0.000000
vn -0.842775 -0.538267 0.000000
vn -0.842775 -0.538267 0.000000
vn 0.000000 0.000000 1.000000
vn 0.000000 0.000000 1.000000
vn 0.000000 0.000000 1.000000
vn 0.000000 0.000000 1.000000
vn 1.000000 0.000000 0.000000
vn 1.000000 0.000000 0.000000
vn 1.000000 0.000000 0.000000
vn 1.000000 0.000000 0.000000
vn 0.000000 0.000000 -1.000000
vn 0.000000 0.000000 -1.000000
vn 0.000000 0.000000 -1.000000
vn 0.000000 0.000000 -1.000000
vn -1.000000 0.000000 0.000000
vn -1.000000 0.000000 0.000000
vn -1.000000 0.000000 0.000000
vn -1.000000 0.000000 0.000000
vn 0.000000 1.000000 -0.000000
vn 0.000000 1.000000 -0.000000
vn 0.000000 1.000000 -0.000000
vn 0.000000 1.000000 -0.000000
vn 0.000000 1.000000 0.000000
vn 0.000000 1.000000 0.000000
vn 0.000000 1.000000 0.000000
vn 0.000000 1.000000 0.000000
vn 0.000000 1.000000 0.000000
vn 0.000000 1.000000 0.000000
vn 0.000000 1.000000 0.000000
vn 0.000000 1.000000 0.000000
vn 0.000000 1.000000 0.000000
vn 0.000000 1.000000 0.000000
vn 0.000000 1.000000 0.000000
vn 0.000000 1.000000 0.000000
vn 0.000000 0.000000 1.000000
vn 0.000000 0.000000 1.000000
vn 0.000000 0.000000 1.000000
vn 0.000000 0.000000 1.000000
vn 1.000000 0.000000 0.000000
vn 1.000000 0.000000 0.000000
vn 1.000000 0.000000 0.000000
vn 1.000000 0.000000 0.000000
vn 0.000000 0.000000 -1.000000
vn 0.000000 0.000000 -1.000000
vn 0.000000 0.000000 -1.000000
vn 0.000000 0.000000 -1.000000
vn -1.000000 0.000000 0.000000
vn -1.000000 0.000000 0.000000
vn -1.000000 0.000000 0.000000
vn -1.000000 0.000000 0.000000
vn 0.000000 -1.000000 -0.000000
vn 0.000000 -1.000000 -0.000000
vn 0.000000 -1.000000 -0.000000
vn 0.000000 -1.000000 -0.000000
vn 0.000000 -1.000000 0.000000
vn 0.000000 -1.000000 0.000000
vn 0.000000 -1.000000 0.000000
vn 0.000000 -1.000000 0.000000
vn 0.000000 -1.000000 0.000000
vn 0.000000 -1.000000 0.000000
vn 0.000000 -1.000000 0.000000
vn 0.000000 -1.000000 0.000000
vn 0.000000 -1.000000 0.000000
vn 0.000000 -1.000000 0.000000
vn 0.000000 -1.000000 0.000000
vn 0.000000 -1.000000 0.000000
vn 0.000000 0.000000 1.000000
vn 0.000000 0.000000 1.000000
vn 0.000000 0.000000 1.000000
vn 0.000000 0.000000 1.000000
vn 1.000000 0.000000 0.000000
vn 1.000000 0.000000 0.000000
vn 1.000000 0.000000 0.000000
vn 1.000000 0.000000 0.000000
vn 0.000000 0.000000 -1.000000
vn 0.000000 0.000000 -1.000000
vn 0.000000 0.000000 -1.000000
vn 0.000000 0.000000 -1.000000
vn -1.000000 0.000000 0.000000
vn -1.000000 0.000000 0.000000
vn -1.000000 0.000000 0.000000
vn -1.000000 0.000000 0.000000
vn 0.000000 0.527511 0.849548
vn 0.000000 0.527511 0.849548
vn 0.000000 0.527511 0.849548
vn 0.000000 0.527511 0.849548
vn 0.856744 0.515742 0.000000
vn 0.856744 0.515742 0.000000
vn 0.856744 0.515742 0.000000
vn 0.856744 0.515742 0.000000
vn 0.000000 0.527511 -0.849548
vn 0.000000 0.527511 -0.849548
vn 0.000000 0.527511 -0.849548
vn 0.000000 0.527511 -0.849548
vn -0.856744 0.515742 0.000000
vn -0.856744 0.515742 0.000000
vn -0.856744 0.515742 0.000000
vn -0.856744 0.515742 0.000000
s off
g pCube8
usemtl lambert6SG
f 65/97/1 66/98/2 67/99/3 68/100/4
f 3/1/5 4/2/6 6/31/7 5/4/8
f 5/139/9 6/140/10 8/141/11 7/142/12
f 7/5/13 8/29/14 2/7/15 1/8/16
f 2/7/17 8/6/18 6/3/19 4/2/20
f 7/30/21 1/8/22 3/1/23 5/32/24
f 1/8/25 2/7/26 10/25/27 9/27/28
f 2/7/29 4/2/30 11/23/31 10/25/32
f 4/2/33 3/1/34 12/21/35 11/23/36
f 3/1/37 1/8/38 9/27/39 12/21/40
f 9/10/41 10/26/42 14/13/43 13/14/44
f 10/9/45 11/24/46 15/15/47 14/13/48
f 11/11/49 12/22/50 16/16/51 15/15/52
f 12/12/53 9/28/54 13/14/55 16/16/56
f 13/14/57 14/13/58 18/17/59 17/18/60
f 14/13/61 15/15/62 19/19/63 18/17/64
f 15/15/65 16/16/66 20/20/67 19/19/68
f 16/16/69 13/14/70 17/18/71 20/20/72
f 17/65/73 18/66/74 22/67/75 21/68/76
f 18/33/77 19/34/78 23/35/79 22/36/80
f 19/81/81 20/82/82 24/83/83 23/84/84
f 20/37/85 17/38/86 21/39/87 24/40/88
f 21/68/89 22/67/90 26/69/91 25/70/92
f 22/36/93 23/35/94 27/41/95 26/42/96
f 23/84/97 24/83/98 28/85/99 27/86/100
f 24/40/101 21/39/102 25/43/103 28/44/104
f 25/70/105 26/69/106 30/71/107 29/72/108
f 26/42/109 27/41/110 31/45/111 30/46/112
f 27/86/113 28/85/114 32/87/115 31/88/116
f 28/44/117 25/43/118 29/47/119 32/48/120
f 29/72/121 30/71/122 34/73/123 33/74/124
f 30/46/125 31/45/126 35/49/127 34/50/128
f 31/88/129 32/87/130 36/89/131 35/90/132
f 32/48/133 29/47/134 33/51/135 36/52/136
f 33/74/137 34/73/138 38/75/139 37/76/140
f 34/50/141 35/49/142 39/53/143 38/54/144
f 35/90/145 36/89/146 40/91/147 39/92/148
f 36/52/149 33/51/150 37/55/151 40/56/152
f 37/76/153 38/75/154 42/77/155 41/78/156
f 38/54/157 39/53/158 43/57/159 42/58/160
f 39/92/161 40/91/162 44/93/163 43/94/164
f 40/56/165 37/55/166 41/59/167 44/60/168
f 41/78/169 42/77/170 46/79/171 45/80/172
f 42/58/173 43/57/174 47/61/175 46/62/176
f 43/94/177 44/93/178 48/95/179 47/96/180
f 44/60/181 41/59/182 45/63/183 48/64/184
f 45/113/185 46/114/186 50/115/187 49/116/188
f 46/114/189 47/117/190 51/118/191 50/115/192
f 47/117/193 48/119/194 52/120/195 51/118/196
f 48/119/197 45/113/198 49/116/199 52/120/200
f 49/129/201 50/130/202 54/131/203 53/132/204
f 50/130/205 51/133/206 55/134/207 54/131/208
f 51/133/209 52/137/210 56/138/211 55/134/212
f 52/135/213 49/129/214 53/132/215 56/136/216
f 53/121/217 54/122/218 58/123/219 57/124/220
f 54/122/221 55/125/222 59/126/223 58/123/224
f 55/125/225 56/127/226 60/128/227 59/126/228
f 56/127/229 53/121/230 57/124/231 60/128/232
f 57/101/233 58/111/234 62/103/235 61/104/236
f 58/102/237 59/110/238 63/106/239 62/103/240
f 59/105/241 60/109/242 64/108/243 63/106/244
f 60/107/245 57/112/246 61/104/247 64/108/248
f 61/104/249 62/103/250 66/98/251 65/97/252
f 62/103/253 63/106/254 67/99/255 66/98/256
f 63/106/257 64/108/258 68/100/259 67/99/260
f 64/108/261 61/104/262 65/97/263 68/100/264
