# This file uses centimeters as units for non-parametric coordinates.

mtllib Floorpiece.mtl
g default
v -1.000000 0.000000 1.000000
v 0.000000 0.000000 1.000000
v -1.000000 0.100000 1.000000
v 0.000000 0.100000 1.000000
v -1.000000 0.100000 0.000000
v 0.000000 0.100000 0.000000
v -1.000000 0.000000 0.000000
v 0.000000 0.000000 0.000000
vt 0.248071 0.042642
vt 0.710216 0.920690
vt 0.708478 0.041731
vt 0.289926 0.042559
vt 0.709306 0.460283
vt 0.290754 0.461111
vt 0.751161 0.460200
vt 0.290836 0.502966
vt 0.291664 0.921518
vt 0.248898 0.461193
vt 0.709388 0.502138
vt 0.750333 0.041648
vt 0.291747 0.963373
vt 0.710299 0.962545
vn 0.000000 0.000000 1.000000
vn 0.000000 0.000000 1.000000
vn 0.000000 0.000000 1.000000
vn 0.000000 0.000000 1.000000
vn 0.000000 1.000000 0.000000
vn 0.000000 1.000000 0.000000
vn 0.000000 1.000000 0.000000
vn 0.000000 1.000000 0.000000
vn 0.000000 0.000000 -1.000000
vn 0.000000 0.000000 -1.000000
vn 0.000000 0.000000 -1.000000
vn 0.000000 0.000000 -1.000000
vn 0.000000 -1.000000 0.000000
vn 0.000000 -1.000000 0.000000
vn 0.000000 -1.000000 0.000000
vn 0.000000 -1.000000 0.000000
vn 1.000000 0.000000 0.000000
vn 1.000000 0.000000 0.000000
vn 1.000000 0.000000 0.000000
vn 1.000000 0.000000 0.000000
vn -1.000000 0.000000 0.000000
vn -1.000000 0.000000 0.000000
vn -1.000000 0.000000 0.000000
vn -1.000000 0.000000 0.000000
s off
g initialShadingGroup floorpiece
f 1/9/1 2/2/2 4/14/3 3/13/4
f 3/4/5 4/3/6 6/5/7 5/6/8
f 5/6/9 6/5/10 8/11/11 7/8/12
f 7/8/13 8/11/14 2/2/15 1/9/16
f 2/12/17 8/7/18 6/5/19 4/3/20
f 7/10/21 1/1/22 3/4/23 5/6/24
