# This file uses centimeters as units for non-parametric coordinates.

mtllib wallpiece.mtl
g default
v 0.000000 0.000000 0.000000
v 4.000000 0.000000 0.000000
v 0.000000 8.000000 0.000000
v 4.000000 8.000000 0.000000
v 0.000000 8.000000 -0.800000
v 4.000000 8.000000 -0.800000
v 0.000000 0.000000 -0.800000
v 4.000000 0.000000 -0.800000
vt 0.642362 0.052700
vt 0.372752 0.007832
vt 0.328279 0.501390
vt 0.597096 0.546258
vt 0.372752 0.501390
vt 0.597096 0.501390
vt 0.372752 0.052700
vt 0.597096 0.052700
vt 0.597096 0.994947
vt 0.597096 0.007832
vt 0.372752 0.994947
vt 0.328279 0.052700
vt 0.642362 0.501390
vt 0.372752 0.546258
vn 0.000000 0.000000 1.000000
vn 0.000000 0.000000 1.000000
vn 0.000000 0.000000 1.000000
vn 0.000000 0.000000 1.000000
vn 0.000000 1.000000 0.000000
vn 0.000000 1.000000 0.000000
vn 0.000000 1.000000 0.000000
vn 0.000000 1.000000 0.000000
vn 0.000000 0.000000 -1.000000
vn 0.000000 0.000000 -1.000000
vn 0.000000 0.000000 -1.000000
vn 0.000000 0.000000 -1.000000
vn 0.000000 -1.000000 0.000000
vn 0.000000 -1.000000 0.000000
vn 0.000000 -1.000000 0.000000
vn 0.000000 -1.000000 0.000000
vn 1.000000 0.000000 0.000000
vn 1.000000 0.000000 0.000000
vn 1.000000 0.000000 0.000000
vn 1.000000 0.000000 0.000000
vn -1.000000 0.000000 0.000000
vn -1.000000 0.000000 0.000000
vn -1.000000 0.000000 0.000000
vn -1.000000 0.000000 0.000000
s off
g initialShadingGroup plank10
f 1/9/1 2/11/2 4/14/3 3/4/4
f 3/4/5 4/14/6 6/5/7 5/6/8
f 5/6/9 6/5/10 8/7/11 7/8/12
f 7/8/13 8/7/14 2/2/15 1/10/16
f 2/12/17 8/7/18 6/5/19 4/3/20
f 7/8/21 1/1/22 3/13/23 5/6/24
