# This file uses meters as units for non-parametric coordinates.

mtllib woodbundle.mtl
g default
v 250.000000 -25.000000 -250.000000
v 350.000000 -25.000000 -250.000000
v 250.000000 50.000000 -250.000000
v 350.000000 50.000000 -250.000000
v 250.000000 50.000000 -850.000000
v 350.000000 50.000000 -850.000000
v 250.000000 -25.000000 -850.000000
v 350.000000 -25.000000 -850.000000
v 250.000000 50.000000 -344.545471
v 250.000000 50.000000 -359.090912
v 250.000000 50.000000 -413.636353
v 250.000000 50.000000 -468.181824
v 250.000000 50.000000 -522.727295
v 250.000000 50.000000 -577.272705
v 250.000000 50.000000 -631.818176
v 250.000000 50.000000 -686.363647
v 250.000000 50.000000 -740.909119
v 250.000000 50.000000 -755.454590
v 350.000000 50.000000 -344.545471
v 350.000000 50.000000 -359.090912
v 350.000000 50.000000 -413.636353
v 350.000000 50.000000 -468.181824
v 350.000000 50.000000 -522.727295
v 350.000000 50.000000 -577.272705
v 350.000000 50.000000 -631.818176
v 350.000000 50.000000 -686.363647
v 350.000000 50.000000 -740.909119
v 350.000000 50.000000 -755.454590
v 250.000000 -25.000000 -755.454529
v 250.000000 -25.000000 -740.909058
v 250.000000 -25.000000 -686.363647
v 250.000000 -25.000000 -631.818176
v 250.000000 -25.000000 -577.272705
v 250.000000 -25.000000 -522.727295
v 250.000000 -25.000000 -468.181824
v 250.000000 -25.000000 -413.636353
v 250.000000 -25.000000 -359.090881
v 250.000000 -25.000000 -344.545410
v 350.000000 -25.000000 -755.454529
v 350.000000 -25.000000 -740.909058
v 350.000000 -25.000000 -686.363647
v 350.000000 -25.000000 -631.818176
v 350.000000 -25.000000 -577.272705
v 350.000000 -25.000000 -522.727295
v 350.000000 -25.000000 -468.181824
v 350.000000 -25.000000 -413.636353
v 350.000000 -25.000000 -359.090881
v 350.000000 -25.000000 -344.545410
v 246.540001 -28.000000 -755.454529
v 353.459999 -28.000000 -755.454529
v 353.459999 -28.000000 -740.909058
v 246.540001 -28.000000 -740.909058
v 353.459999 53.000000 -740.909119
v 353.459999 53.000000 -755.454590
v 246.540001 53.000000 -740.909119
v 246.540001 53.000000 -755.454590
v 246.540001 -28.000000 -359.090881
v 353.459999 -28.000000 -359.090881
v 353.459999 -28.000000 -344.545410
v 246.540001 -28.000000 -344.545410
v 353.459999 53.000000 -344.545471
v 353.459999 53.000000 -359.090912
v 246.540001 53.000000 -344.545471
v 246.540001 53.000000 -359.090912
vt 0.375000 0.000000
vt 0.625000 0.000000
vt 0.375000 0.250000
vt 0.625000 0.250000
vt 0.375000 0.500000
vt 0.625000 0.500000
vt 0.375000 0.750000
vt 0.625000 0.750000
vt 0.375000 1.000000
vt 0.625000 1.000000
vt 0.875000 0.000000
vt 0.875000 0.250000
vt 0.125000 0.000000
vt 0.125000 0.250000
vt 0.352273 0.250000
vt 0.375000 0.272727
vt 0.329545 0.250000
vt 0.375000 0.295455
vt 0.306818 0.250000
vt 0.375000 0.318182
vt 0.284091 0.250000
vt 0.375000 0.340909
vt 0.261364 0.250000
vt 0.375000 0.363636
vt 0.238636 0.250000
vt 0.375000 0.386364
vt 0.215909 0.250000
vt 0.375000 0.409091
vt 0.193182 0.250000
vt 0.375000 0.431818
vt 0.170455 0.250000
vt 0.375000 0.454545
vt 0.147727 0.250000
vt 0.375000 0.477273
vt 0.625000 0.272727
vt 0.647727 0.250000
vt 0.625000 0.295455
vt 0.670455 0.250000
vt 0.625000 0.318182
vt 0.693182 0.250000
vt 0.625000 0.340909
vt 0.715909 0.250000
vt 0.625000 0.363636
vt 0.738636 0.250000
vt 0.625000 0.386364
vt 0.761364 0.250000
vt 0.625000 0.409091
vt 0.784091 0.250000
vt 0.625000 0.431818
vt 0.806818 0.250000
vt 0.625000 0.454545
vt 0.829545 0.250000
vt 0.625000 0.477273
vt 0.852273 0.250000
vt 0.147727 0.000000
vt 0.375000 0.772727
vt 0.170455 0.000000
vt 0.375000 0.795455
vt 0.193182 0.000000
vt 0.375000 0.818182
vt 0.215909 0.000000
vt 0.375000 0.840909
vt 0.238636 0.000000
vt 0.375000 0.863636
vt 0.261364 0.000000
vt 0.375000 0.886364
vt 0.284091 0.000000
vt 0.375000 0.909091
vt 0.306818 0.000000
vt 0.375000 0.931818
vt 0.329545 0.000000
vt 0.375000 0.954545
vt 0.352273 0.000000
vt 0.375000 0.977273
vt 0.625000 0.772727
vt 0.852273 0.000000
vt 0.625000 0.795455
vt 0.829545 0.000000
vt 0.625000 0.818182
vt 0.806818 0.000000
vt 0.625000 0.840909
vt 0.784091 0.000000
vt 0.625000 0.863636
vt 0.761364 0.000000
vt 0.625000 0.886364
vt 0.738636 0.000000
vt 0.625000 0.909091
vt 0.715909 0.000000
vt 0.625000 0.931818
vt 0.693182 0.000000
vt 0.625000 0.954545
vt 0.670455 0.000000
vt 0.625000 0.977273
vt 0.647727 0.000000
vt 0.375000 0.772727
vt 0.625000 0.772727
vt 0.625000 0.795455
vt 0.375000 0.795455
vt 0.829545 0.250000
vt 0.829545 0.000000
vt 0.852273 0.000000
vt 0.852273 0.250000
vt 0.375000 0.454545
vt 0.625000 0.454545
vt 0.625000 0.477273
vt 0.375000 0.477273
vt 0.147727 0.250000
vt 0.147727 0.000000
vt 0.170455 0.000000
vt 0.170455 0.250000
vt 0.375000 0.954545
vt 0.625000 0.954545
vt 0.625000 0.977273
vt 0.375000 0.977273
vt 0.647727 0.250000
vt 0.647727 0.000000
vt 0.670455 0.000000
vt 0.670455 0.250000
vt 0.375000 0.272727
vt 0.625000 0.272727
vt 0.625000 0.295455
vt 0.375000 0.295455
vt 0.329545 0.250000
vt 0.329545 0.000000
vt 0.352273 0.000000
vt 0.352273 0.250000
vn 0.000000 0.000000 1.000000
vn 0.000000 0.000000 1.000000
vn 0.000000 0.000000 1.000000
vn 0.000000 0.000000 1.000000
vn 0.000000 1.000000 0.000000
vn 0.000000 1.000000 0.000000
vn 0.000000 1.000000 0.000000
vn 0.000000 1.000000 0.000000
vn 0.000000 0.000000 -1.000000
vn 0.000000 0.000000 -1.000000
vn 0.000000 0.000000 -1.000000
vn 0.000000 0.000000 -1.000000
vn 0.000000 -1.000000 0.000000
vn 0.000000 -1.000000 0.000000
vn 0.000000 -1.000000 0.000000
vn 0.000000 -1.000000 0.000000
vn 1.000000 0.000000 0.000000
vn 1.000000 0.000000 0.000000
vn 1.000000 0.000000 0.000000
vn 1.000000 0.000000 0.000000
vn -1.000000 0.000000 0.000000
vn -1.000000 0.000000 0.000000
vn -1.000000 0.000000 0.000000
vn -1.000000 0.000000 0.000000
vn 0.000000 -1.000000 0.000000
vn 0.000000 -1.000000 0.000000
vn 0.000000 -1.000000 0.000000
vn 0.000000 -1.000000 0.000000
vn 1.000000 0.000000 0.000000
vn 1.000000 0.000000 0.000000
vn 1.000000 0.000000 0.000000
vn 1.000000 0.000000 0.000000
vn 0.000000 1.000000 0.000000
vn 0.000000 1.000000 0.000000
vn 0.000000 1.000000 0.000000
vn 0.000000 1.000000 0.000000
vn -1.000000 0.000000 0.000000
vn -1.000000 0.000000 0.000000
vn -1.000000 0.000000 0.000000
vn -1.000000 0.000000 0.000000
vn 0.000000 -1.000000 0.000000
vn 0.000000 -1.000000 0.000000
vn 0.000000 -1.000000 0.000000
vn 0.000000 -1.000000 0.000000
vn 1.000000 0.000000 0.000000
vn 1.000000 0.000000 0.000000
vn 1.000000 0.000000 0.000000
vn 1.000000 0.000000 0.000000
vn 0.000000 1.000000 0.000000
vn 0.000000 1.000000 0.000000
vn 0.000000 1.000000 0.000000
vn 0.000000 1.000000 0.000000
vn -1.000000 0.000000 0.000000
vn -1.000000 0.000000 0.000000
vn -1.000000 0.000000 0.000000
vn -1.000000 0.000000 0.000000
vn 0.000000 -1.000000 0.000000
vn 0.000000 -1.000000 0.000000
vn 0.000000 -1.000000 0.000000
vn 0.000000 -1.000000 0.000000
vn 1.000000 0.000000 0.000000
vn 1.000000 0.000000 0.000000
vn 1.000000 0.000000 0.000000
vn 1.000000 0.000000 0.000000
vn 0.000000 1.000000 0.000000
vn 0.000000 1.000000 0.000000
vn 0.000000 1.000000 0.000000
vn 0.000000 1.000000 0.000000
vn -1.000000 0.000000 0.000000
vn -1.000000 0.000000 0.000000
vn -1.000000 0.000000 0.000000
vn -1.000000 0.000000 0.000000
vn 0.000000 -1.000000 0.000000
vn 0.000000 -1.000000 0.000000
vn 0.000000 -1.000000 0.000000
vn 0.000000 -1.000000 0.000000
vn 0.000000 -1.000000 0.000000
vn 0.000000 -1.000000 0.000000
vn 0.000000 -1.000000 0.000000
vn 0.000000 -1.000000 0.000000
vn 0.000000 -1.000000 0.000000
vn 0.000000 -1.000000 0.000000
vn 0.000000 -1.000000 0.000000
vn 0.000000 -1.000000 0.000000
vn 0.000000 -1.000000 0.000000
vn 0.000000 -1.000000 0.000000
vn 0.000000 -1.000000 0.000000
vn 0.000000 -1.000000 0.000000
vn 1.000000 0.000000 0.000000
vn 1.000000 0.000000 0.000000
vn 1.000000 0.000000 0.000000
vn 1.000000 0.000000 0.000000
vn 1.000000 0.000000 0.000000
vn 1.000000 0.000000 0.000000
vn 1.000000 0.000000 0.000000
vn 1.000000 0.000000 0.000000
vn 1.000000 0.000000 0.000000
vn 1.000000 0.000000 0.000000
vn 1.000000 0.000000 0.000000
vn 1.000000 0.000000 0.000000
vn 1.000000 0.000000 0.000000
vn 1.000000 0.000000 0.000000
vn 1.000000 0.000000 0.000000
vn 1.000000 0.000000 0.000000
vn 0.000000 1.000000 0.000000
vn 0.000000 1.000000 0.000000
vn 0.000000 1.000000 0.000000
vn 0.000000 1.000000 0.000000
vn 0.000000 1.000000 0.000000
vn 0.000000 1.000000 0.000000
vn 0.000000 1.000000 0.000000
vn 0.000000 1.000000 0.000000
vn 0.000000 1.000000 0.000000
vn 0.000000 1.000000 0.000000
vn 0.000000 1.000000 0.000000
vn 0.000000 1.000000 0.000000
vn 0.000000 1.000000 0.000000
vn 0.000000 1.000000 0.000000
vn 0.000000 1.000000 0.000000
vn 0.000000 1.000000 0.000000
vn -1.000000 -0.000000 0.000000
vn -1.000000 -0.000000 0.000000
vn -1.000000 -0.000000 0.000000
vn -1.000000 -0.000000 0.000000
vn -1.000000 -0.000000 0.000000
vn -1.000000 -0.000000 0.000000
vn -1.000000 -0.000000 0.000000
vn -1.000000 -0.000000 0.000000
vn -1.000000 -0.000000 0.000000
vn -1.000000 -0.000000 0.000000
vn -1.000000 -0.000000 0.000000
vn -1.000000 -0.000000 0.000000
vn -1.000000 -0.000000 0.000000
vn -1.000000 -0.000000 0.000000
vn -1.000000 -0.000000 0.000000
vn -1.000000 -0.000000 0.000000
vn 0.000000 0.000000 -1.000000
vn 0.000000 0.000000 -1.000000
vn 0.000000 0.000000 -1.000000
vn 0.000000 0.000000 -1.000000
vn 0.000000 0.000000 1.000000
vn 0.000000 0.000000 1.000000
vn 0.000000 0.000000 1.000000
vn 0.000000 0.000000 1.000000
vn 0.000012 0.000001 1.000000
vn 0.000012 0.000001 1.000000
vn 0.000012 0.000001 1.000000
vn 0.000012 0.000001 1.000000
vn 0.000001 -0.000001 -1.000000
vn 0.000001 -0.000001 -1.000000
vn 0.000001 -0.000001 -1.000000
vn 0.000001 -0.000001 -1.000000
vn 0.000000 0.000000 1.000000
vn 0.000000 0.000000 1.000000
vn 0.000000 0.000000 1.000000
vn 0.000000 0.000000 1.000000
vn 0.000000 0.000000 -1.000000
vn 0.000000 0.000000 -1.000000
vn 0.000000 0.000000 -1.000000
vn 0.000000 0.000000 -1.000000
vn -0.000002 -0.000001 -1.000000
vn -0.000002 -0.000001 -1.000000
vn -0.000002 -0.000001 -1.000000
vn -0.000002 -0.000001 -1.000000
vn -0.000012 0.000001 1.000000
vn -0.000012 0.000001 1.000000
vn -0.000012 0.000001 1.000000
vn -0.000012 0.000001 1.000000
vn 0.000000 0.000000 -1.000000
vn 0.000000 0.000000 -1.000000
vn 0.000000 0.000000 -1.000000
vn 0.000000 0.000000 -1.000000
vn 0.000000 0.000000 1.000000
vn 0.000000 0.000000 1.000000
vn 0.000000 0.000000 1.000000
vn 0.000000 0.000000 1.000000
vn 0.000000 0.000001 1.000000
vn 0.000000 0.000001 1.000000
vn 0.000000 0.000001 1.000000
vn 0.000000 0.000001 1.000000
vn 0.000001 -0.000000 -1.000000
vn 0.000001 -0.000000 -1.000000
vn 0.000001 -0.000000 -1.000000
vn 0.000001 -0.000000 -1.000000
vn 0.000000 0.000000 1.000000
vn 0.000000 0.000000 1.000000
vn 0.000000 0.000000 1.000000
vn 0.000000 0.000000 1.000000
vn 0.000000 0.000000 -1.000000
vn 0.000000 0.000000 -1.000000
vn 0.000000 0.000000 -1.000000
vn 0.000000 0.000000 -1.000000
vn 0.000001 -0.000000 -1.000000
vn 0.000001 -0.000000 -1.000000
vn 0.000001 -0.000000 -1.000000
vn 0.000001 -0.000000 -1.000000
vn 0.000000 0.000001 1.000000
vn 0.000000 0.000001 1.000000
vn 0.000000 0.000001 1.000000
vn 0.000000 0.000001 1.000000
s off
g pasted__pCube1 group
usemtl initialShadingGroup
f 1/1/1 2/2/2 4/4/3 3/3/4
f 3/3/5 4/4/6 19/35/7 9/16/8
f 5/5/9 6/6/10 8/8/11 7/7/12
f 38/74/13 48/93/14 2/10/15 1/9/16
f 2/2/17 48/94/18 19/36/19 4/4/20
f 9/15/21 38/73/22 1/1/23 3/3/24
f 49/95/25 50/96/26 51/97/27 52/98/28
f 53/99/29 51/100/30 50/101/31 54/102/32
f 55/103/33 53/104/34 54/105/35 56/106/36
f 56/107/37 49/108/38 52/109/39 55/110/40
f 7/7/41 8/8/42 39/75/43 29/56/44
f 28/54/45 39/76/46 8/11/47 6/12/48
f 18/34/49 28/53/50 6/6/51 5/5/52
f 7/13/53 29/55/54 18/33/55 5/14/56
f 57/111/57 58/112/58 59/113/59 60/114/60
f 61/115/61 59/116/62 58/117/63 62/118/64
f 63/119/65 61/120/66 62/121/67 64/122/68
f 64/123/69 57/124/70 60/125/71 63/126/72
f 30/58/73 40/77/74 41/79/75 42/81/76 43/83/77 44/85/78 45/87/79 46/89/80 47/91/81 37/72/82 36/70/83 35/68/84 34/66/85 33/64/86 32/62/87 31/60/88
f 20/38/89 47/92/90 46/90/91 45/88/92 44/86/93 43/84/94 42/82/95 41/80/96 40/78/97 27/52/98 26/50/99 25/48/100 24/46/101 23/44/102 22/42/103 21/40/104
f 10/18/105 20/37/106 21/39/107 22/41/108 23/43/109 24/45/110 25/47/111 26/49/112 27/51/113 17/32/114 16/30/115 15/28/116 14/26/117 13/24/118 12/22/119 11/20/120
f 17/31/121 30/57/122 31/59/123 32/61/124 33/63/125 34/65/126 35/67/127 36/69/128 37/71/129 10/17/130 11/19/131 12/21/132 13/23/133 14/25/134 15/27/135 16/29/136
f 29/56/137 39/75/138 50/96/139 49/95/140
f 40/77/141 30/58/142 52/98/143 51/97/144
f 27/52/145 40/78/146 51/100/147 53/99/148
f 39/76/149 28/54/150 54/102/151 50/101/152
f 17/32/153 27/51/154 53/104/155 55/103/156
f 28/53/157 18/34/158 56/106/159 54/105/160
f 18/33/161 29/55/162 49/108/163 56/107/164
f 30/57/165 17/31/166 55/110/167 52/109/168
f 37/72/169 47/91/170 58/112/171 57/111/172
f 48/93/173 38/74/174 60/114/175 59/113/176
f 19/36/177 48/94/178 59/116/179 61/115/180
f 47/92/181 20/38/182 62/118/183 58/117/184
f 9/16/185 19/35/186 61/120/187 63/119/188
f 20/37/189 10/18/190 64/122/191 62/121/192
f 10/17/193 37/71/194 57/124/195 64/123/196
f 38/73/197 9/15/198 63/126/199 60/125/200
