# This file uses centimeters as units for non-parametric coordinates.

mtllib cashregister.mtl
g default
v -0.500000 -0.500000 5.400000
v 0.500000 -0.500000 5.400000
v -0.500000 -0.200000 5.400000
v 0.500000 -0.200000 5.400000
v -0.500000 -0.200000 4.500000
v 0.500000 -0.200000 4.500000
v -0.500000 -0.500000 4.500000
v 0.500000 -0.500000 4.500000
v -0.400000 -0.470000 5.400000
v 0.400000 -0.470000 5.400000
v 0.400000 -0.230000 5.400000
v -0.400000 -0.230000 5.400000
v -0.400000 -0.470000 5.450000
v 0.400000 -0.470000 5.450000
v 0.400000 -0.230000 5.450000
v -0.400000 -0.230000 5.450000
v -0.500000 -0.200000 4.860000
v 0.500000 -0.200000 4.860000
v 0.500000 -0.200000 4.572000
v -0.500000 -0.200000 4.572000
v 0.400000 -0.200000 4.572000
v 0.400000 -0.200000 4.860000
v -0.410000 -0.200000 4.572000
v -0.410000 -0.200000 4.860000
v -0.329000 0.100000 4.572000
v -0.329000 0.100000 4.860000
v 0.319000 0.100000 4.860000
v 0.319000 0.100000 4.572000
v -0.069800 0.100000 4.629600
v -0.069800 0.100000 4.802400
v 0.059800 0.100000 4.802400
v 0.059800 0.100000 4.629600
v -0.069800 0.200000 4.629600
v -0.069800 0.200000 4.802400
v 0.059800 0.200000 4.802400
v 0.059800 0.200000 4.629600
v 0.159800 0.200000 4.629600
v 0.159800 0.200000 4.802400
v -0.169800 0.200000 4.629600
v -0.169800 0.200000 4.802400
v -0.069800 0.400000 4.802400
v 0.059800 0.400000 4.802400
v 0.059800 0.400000 4.629600
v -0.069800 0.400000 4.629600
v -0.169800 0.400000 4.629600
v -0.169800 0.400000 4.802400
v 0.160000 0.400000 4.802400
v 0.160000 0.400000 4.629600
vt 0.375000 0.000000
vt 0.625000 0.000000
vt 0.375000 0.250000
vt 0.625000 0.250000
vt 0.375000 0.500000
vt 0.625000 0.500000
vt 0.375000 0.750000
vt 0.625000 0.750000
vt 0.375000 1.000000
vt 0.625000 1.000000
vt 0.875000 0.000000
vt 0.875000 0.250000
vt 0.125000 0.000000
vt 0.125000 0.250000
vt 0.375000 0.000000
vt 0.625000 0.000000
vt 0.625000 0.250000
vt 0.375000 0.250000
vt 0.375000 0.000000
vt 0.625000 0.000000
vt 0.625000 0.250000
vt 0.375000 0.250000
vt 0.225000 0.250000
vt 0.375000 0.400000
vt 0.625000 0.400000
vt 0.775000 0.250000
vt 0.625000 0.480000
vt 0.855000 0.250000
vt 0.145000 0.250000
vt 0.375000 0.480000
vt 0.600000 0.480000
vt 0.600000 0.400000
vt 0.397500 0.480000
vt 0.397500 0.400000
vt 0.397500 0.480000
vt 0.397500 0.400000
vt 0.600000 0.400000
vt 0.600000 0.480000
vt 0.397500 0.480000
vt 0.397500 0.400000
vt 0.600000 0.400000
vt 0.600000 0.480000
vt 0.397500 0.480000
vt 0.397500 0.400000
vt 0.600000 0.400000
vt 0.600000 0.480000
vt 0.000000 0.000000
vt 1.000000 0.000000
vt 1.000000 1.000000
vt 0.000000 1.000000
vt 0.000000 0.000000
vt 1.000000 0.000000
vt 1.000000 1.000000
vt 0.000000 1.000000
vt 0.000000 0.000000
vt 1.000000 0.000000
vt 1.000000 1.000000
vt 0.000000 1.000000
vt 0.000000 0.000000
vt 1.000000 0.000000
vt 1.000000 1.000000
vt 0.000000 1.000000
vt 0.000000 0.000000
vt 1.000000 0.000000
vt 1.000000 1.000000
vt 0.000000 1.000000
vt 0.000000 0.000000
vt 1.000000 0.000000
vt 1.000000 1.000000
vt 0.000000 1.000000
vt 0.000000 0.000000
vt 1.000000 0.000000
vt 1.000000 1.000000
vt 0.000000 1.000000
vt 0.000000 0.000000
vt 1.000000 0.000000
vt 1.000000 1.000000
vt 0.000000 1.000000
vt 0.000000 0.000000
vt 1.000000 0.000000
vt 1.000000 1.000000
vt 0.000000 1.000000
vt 0.000000 0.000000
vt 1.000000 0.000000
vt 1.000000 1.000000
vt 0.000000 1.000000
vt 0.000000 0.000000
vt 1.000000 0.000000
vt 1.000000 1.000000
vt 0.000000 1.000000
vn 0.000000 0.000000 1.000000
vn 0.000000 0.000000 1.000000
vn 0.000000 0.000000 1.000000
vn 0.000000 0.000000 1.000000
vn 0.000000 1.000000 0.000000
vn 0.000000 1.000000 -0.000000
vn 0.000000 1.000000 -0.000000
vn 0.000000 1.000000 0.000000
vn 0.000000 0.000000 -1.000000
vn 0.000000 0.000000 -1.000000
vn 0.000000 0.000000 -1.000000
vn 0.000000 0.000000 -1.000000
vn 0.000000 -1.000000 0.000000
vn 0.000000 -1.000000 0.000000
vn 0.000000 -1.000000 0.000000
vn 0.000000 -1.000000 0.000000
vn 1.000000 0.000000 0.000000
vn 1.000000 0.000000 0.000000
vn 1.000000 0.000000 0.000000
vn 1.000000 0.000000 0.000000
vn 1.000000 0.000000 0.000000
vn 1.000000 0.000000 0.000000
vn -1.000000 0.000000 0.000000
vn -1.000000 0.000000 0.000000
vn -1.000000 0.000000 0.000000
vn -1.000000 0.000000 0.000000
vn -1.000000 0.000000 0.000000
vn -1.000000 0.000000 0.000000
vn 0.000000 0.000000 1.000000
vn 0.000000 0.000000 1.000000
vn 0.000000 0.000000 1.000000
vn 0.000000 0.000000 1.000000
vn -0.000000 0.000000 1.000000
vn -0.000000 0.000000 1.000000
vn -0.000000 0.000000 1.000000
vn -0.000000 0.000000 1.000000
vn 0.000000 0.000000 1.000000
vn 0.000000 0.000000 1.000000
vn 0.000000 0.000000 1.000000
vn 0.000000 0.000000 1.000000
vn 0.000000 0.000000 1.000000
vn 0.000000 0.000000 1.000000
vn 0.000000 0.000000 1.000000
vn 0.000000 0.000000 1.000000
vn 0.000000 -1.000000 0.000000
vn 0.000000 -1.000000 0.000000
vn 0.000000 -1.000000 0.000000
vn 0.000000 -1.000000 0.000000
vn 1.000000 0.000000 0.000000
vn 1.000000 0.000000 0.000000
vn 1.000000 0.000000 0.000000
vn 1.000000 0.000000 0.000000
vn 0.000000 1.000000 0.000000
vn 0.000000 1.000000 0.000000
vn 0.000000 1.000000 0.000000
vn 0.000000 1.000000 0.000000
vn -1.000000 0.000000 0.000000
vn -1.000000 0.000000 0.000000
vn -1.000000 0.000000 0.000000
vn -1.000000 0.000000 0.000000
vn 0.000000 1.000000 -0.000000
vn 0.000000 1.000000 -0.000000
vn -0.000000 1.000000 -0.000000
vn -0.000000 1.000000 -0.000000
vn -0.000000 1.000000 0.000000
vn -0.000000 1.000000 0.000000
vn 0.000000 1.000000 0.000000
vn 0.000000 1.000000 0.000000
vn -0.965429 0.260666 -0.000000
vn -0.965429 0.260666 -0.000000
vn -0.965429 0.260666 -0.000000
vn -0.965429 0.260666 -0.000000
vn 0.000000 0.000000 1.000000
vn 0.000000 0.000000 1.000000
vn 0.000000 0.000000 1.000000
vn 0.000000 0.000000 1.000000
vn 0.965429 0.260666 0.000000
vn 0.965429 0.260666 0.000000
vn 0.965429 0.260666 0.000000
vn 0.965429 0.260666 0.000000
vn 0.000000 0.000000 -1.000000
vn 0.000000 0.000000 -1.000000
vn 0.000000 0.000000 -1.000000
vn 0.000000 0.000000 -1.000000
vn 0.000000 1.000000 0.000000
vn 0.000000 1.000000 0.000000
vn 0.000000 1.000000 0.000000
vn 0.000000 1.000000 0.000000
vn 0.000000 1.000000 -0.000000
vn 0.000000 1.000000 -0.000000
vn 0.000000 1.000000 -0.000000
vn 0.000000 1.000000 -0.000000
vn 0.000000 1.000000 0.000000
vn 0.000000 1.000000 0.000000
vn 0.000000 1.000000 0.000000
vn 0.000000 1.000000 0.000000
vn 0.000000 1.000000 0.000000
vn 0.000000 1.000000 0.000000
vn 0.000000 1.000000 0.000000
vn 0.000000 1.000000 0.000000
vn -1.000000 0.000000 0.000000
vn -1.000000 0.000000 0.000000
vn -1.000000 0.000000 0.000000
vn -1.000000 0.000000 0.000000
vn 0.000000 0.000000 1.000000
vn 0.000000 0.000000 1.000000
vn 0.000000 0.000000 1.000000
vn 0.000000 0.000000 1.000000
vn 1.000000 0.000000 0.000000
vn 1.000000 0.000000 0.000000
vn 1.000000 0.000000 0.000000
vn 1.000000 0.000000 0.000000
vn 0.000000 0.000000 -1.000000
vn 0.000000 0.000000 -1.000000
vn 0.000000 0.000000 -1.000000
vn 0.000000 0.000000 -1.000000
vn 0.000000 -1.000000 -0.000000
vn 0.000000 -1.000000 -0.000000
vn 0.000000 -1.000000 -0.000000
vn 0.000000 -1.000000 -0.000000
vn 0.000000 -1.000000 0.000000
vn 0.000000 -1.000000 0.000000
vn 0.000000 -1.000000 0.000000
vn 0.000000 -1.000000 0.000000
vn 0.000000 0.000000 1.000000
vn 0.000000 0.000000 1.000000
vn 0.000000 0.000000 1.000000
vn 0.000000 0.000000 1.000000
vn 0.000000 0.000000 -1.000000
vn 0.000000 0.000000 -1.000000
vn 0.000000 0.000000 -1.000000
vn 0.000000 0.000000 -1.000000
vn 0.000000 0.000000 -1.000000
vn 0.000000 0.000000 -1.000000
vn 0.000000 0.000000 -1.000000
vn 0.000000 0.000000 -1.000000
vn -1.000000 0.000000 0.000000
vn -1.000000 0.000000 0.000000
vn -1.000000 0.000000 0.000000
vn -1.000000 0.000000 0.000000
vn 0.000000 0.000000 1.000000
vn 0.000000 0.000000 1.000000
vn 0.000000 0.000000 1.000000
vn 0.000000 0.000000 1.000000
vn 0.000000 0.000000 1.000000
vn 0.000000 0.000000 1.000000
vn 0.000000 0.000000 1.000000
vn 0.000000 0.000000 1.000000
vn 1.000000 -0.001000 0.000000
vn 1.000000 -0.001000 0.000000
vn 1.000000 -0.001000 0.000000
vn 1.000000 -0.001000 0.000000
vn 0.000000 0.000000 -1.000000
vn 0.000000 0.000000 -1.000000
vn 0.000000 0.000000 -1.000000
vn 0.000000 0.000000 -1.000000
vn 0.000000 1.000000 0.000000
vn 0.000000 1.000000 0.000000
vn 0.000000 1.000000 0.000000
vn 0.000000 1.000000 0.000000
s off
g pCube89
usemtl initialShadingGroup
f 13/19/1 14/20/2 15/21/3 16/22/4
s 1
f 21/31/5 22/32/6 18/25/7 19/27/8
s off
f 5/5/9 6/6/10 8/8/11 7/7/12
f 7/7/13 8/8/14 2/10/15 1/9/16
f 2/2/17 8/11/18 6/12/19 19/28/20 18/26/21 4/4/22
f 7/13/23 1/1/24 3/3/25 17/23/26 20/29/27 5/14/28
f 1/1/29 2/2/30 10/16/31 9/15/32
f 2/2/33 4/4/34 11/17/35 10/16/36
f 4/4/37 3/3/38 12/18/39 11/17/40
f 3/3/41 1/1/42 9/15/43 12/18/44
f 9/15/45 10/16/46 14/20/47 13/19/48
f 10/16/49 11/17/50 15/21/51 14/20/52
f 11/17/53 12/18/54 16/22/55 15/21/56
f 12/18/57 9/15/58 13/19/59 16/22/60
s 1
f 3/3/61 4/4/62 18/25/7 22/32/6 24/34/63 17/24/64
f 20/30/65 23/33/66 21/31/5 19/27/8 6/6/67 5/5/68
f 17/24/64 24/34/63 23/33/66 20/30/65
s off
f 23/33/69 24/34/70 26/36/71 25/35/72
f 24/34/73 22/32/74 27/37/75 26/36/76
f 22/32/77 21/31/78 28/38/79 27/37/80
f 21/31/81 23/33/82 25/35/83 28/38/84
f 25/35/85 26/36/86 30/40/87 29/39/88
f 26/36/89 27/37/90 31/41/91 30/40/92
f 27/37/93 28/38/94 32/42/95 31/41/96
f 28/38/97 25/35/98 29/39/99 32/42/100
f 29/39/101 30/40/102 34/44/103 33/43/104
f 30/40/105 31/41/106 35/45/107 34/44/108
f 31/41/109 32/42/110 36/46/111 35/45/112
f 32/42/113 29/39/114 33/43/115 36/46/116
f 36/47/117 37/50/118 38/49/119 35/48/120
f 33/51/121 34/52/122 40/53/123 39/54/124
f 34/55/125 35/56/126 42/57/127 41/58/128
f 36/59/129 33/60/130 44/61/131 43/62/132
f 33/63/133 39/64/134 45/65/135 44/66/136
f 39/67/137 40/68/138 46/69/139 45/70/140
f 40/71/141 34/72/142 41/73/143 46/74/144
f 35/75/145 38/76/146 47/77/147 42/78/148
f 38/79/149 37/80/150 48/81/151 47/82/152
f 37/83/153 36/84/154 43/85/155 48/86/156
f 45/87/157 46/88/158 47/89/159 48/90/160
