# This file uses centimeters as units for non-parametric coordinates.

mtllib ventturn.mtl
g default
v 0.300000 -0.500000 0.300000
v -0.500000 0.500000 0.300000
v 0.300000 0.500000 0.300000
v -0.500000 0.500000 -0.500000
v 0.300000 0.500000 -0.500000
v 0.300000 -0.500000 -0.500000
v -0.100040 -0.500000 0.300000
v -0.500000 -0.100040 0.300000
v -0.500000 -0.100040 -0.500000
v -0.100040 -0.500000 -0.500000
v 0.300000 0.300000 0.300000
v -0.500000 0.300000 0.300000
v -0.500000 0.300000 -0.500000
v 0.300000 0.300000 -0.500000
v 0.500000 -0.500000 -0.500000
v 0.500000 -0.500000 0.300000
v 0.500000 0.300000 -0.500000
v 0.500000 0.300000 0.300000
vt 0.625000 -0.242005
vt 0.625000 0.250000
vt 0.375000 0.500000
vt 0.875000 -0.242005
vt 0.875000 0.250000
vt 0.375000 -0.142015
vt 0.499987 -0.242005
vt 0.375000 0.250000
vt 0.625000 0.500000
vt 0.625000 0.750000
vt 0.375000 0.650010
vt 0.499987 1.000000
vt 0.625000 1.000000
vt 0.125000 -0.142015
vt 0.125000 0.250000
vt 0.375000 1.000000
vt 0.499987 0.750000
vt 0.625000 -0.045709
vt 0.375000 -0.042005
vt 0.125000 -0.042005
vt 0.375000 0.550000
vt 0.625000 0.550000
vt 0.875000 -0.045709
vt 0.625000 0.000000
vt 0.875000 0.000000
vt 0.875000 0.196296
vt 0.625000 0.196296
vn 0.000000 1.000000 0.000000
vn 0.000000 1.000000 0.000000
vn 0.000000 1.000000 0.000000
vn 0.000000 1.000000 0.000000
vn 0.000000 0.000000 -1.000000
vn 0.000000 0.000000 -1.000000
vn 0.000000 0.000000 -1.000000
vn 0.000000 0.000000 -1.000000
vn 0.000000 0.000000 -1.000000
vn 0.000000 -1.000000 0.000000
vn 0.000000 -1.000000 0.000000
vn 0.000000 -1.000000 0.000000
vn 0.000000 -1.000000 0.000000
vn 1.000000 0.000000 0.000000
vn 1.000000 0.000000 0.000000
vn 1.000000 0.000000 0.000000
vn 1.000000 0.000000 0.000000
vn -1.000000 0.000000 0.000000
vn -1.000000 0.000000 0.000000
vn -1.000000 0.000000 0.000000
vn -1.000000 0.000000 0.000000
vn 0.000000 0.000000 1.000000
vn 0.000000 0.000000 1.000000
vn 0.000000 0.000000 1.000000
vn 0.000000 0.000000 1.000000
vn 0.000000 0.000000 1.000000
vn -0.707107 -0.707107 0.000000
vn -0.707107 -0.707107 0.000000
vn -0.707107 -0.707107 0.000000
vn -0.707107 -0.707107 0.000000
vn 0.000000 0.000000 1.000000
vn 0.000000 0.000000 1.000000
vn -1.000000 0.000000 0.000000
vn -1.000000 0.000000 0.000000
vn 0.000000 0.000000 -1.000000
vn 0.000000 0.000000 -1.000000
vn 1.000000 0.000000 0.000000
vn 1.000000 0.000000 0.000000
vn 1.000000 0.000000 0.000000
vn 1.000000 0.000000 0.000000
vn 0.000000 -1.000000 0.000000
vn 0.000000 -1.000000 0.000000
vn 0.000000 -1.000000 0.000000
vn 0.000000 -1.000000 0.000000
vn 0.000000 0.000000 -1.000000
vn 0.000000 0.000000 -1.000000
vn 0.000000 0.000000 -1.000000
vn 0.000000 0.000000 -1.000000
vn 0.000000 1.000000 0.000000
vn 0.000000 1.000000 0.000000
vn 0.000000 1.000000 0.000000
vn 0.000000 1.000000 0.000000
vn 0.000000 0.000000 1.000000
vn 0.000000 0.000000 1.000000
vn 0.000000 0.000000 1.000000
vn 0.000000 0.000000 1.000000
s off
g pasted__pCube8 group3
usemtl initialShadingGroup
f 2/8/1 3/2/2 5/9/3 4/3/4
s 1
f 13/21/5 14/22/6 6/10/7 10/17/8 9/11/9
s off
f 7/12/10 10/17/11 6/10/12 1/13/13
f 16/24/14 15/25/15 17/26/16 18/27/17
s 2
f 9/14/18 8/6/19 12/19/20 13/20/21
s 3
f 8/6/22 7/7/23 1/1/24 11/18/25 12/19/26
s off
f 7/12/27 8/16/28 9/11/29 10/17/30
s 3
f 12/19/26 11/18/25 3/2/31 2/8/32
s 2
f 13/20/21 12/19/20 2/8/33 4/15/34
s 1
f 4/3/35 5/9/36 14/22/6 13/21/5
s off
f 11/18/37 14/23/38 5/5/39 3/2/40
f 1/1/41 6/4/42 15/25/43 16/24/44
f 6/4/45 14/23/46 17/26/47 15/25/48
f 14/23/49 11/18/50 18/27/51 17/26/52
f 11/18/53 1/1/54 16/24/55 18/27/56
